<?xml version="1.0" standalone="no"?>
<!DOCTYPE svg PUBLIC "-//W3C//DTD SVG 20010904//EN" "http://www.w3.org/TR/2001/REC-SVG-20010904/DTD/svg10.dtd">
<!-- Created using Krita: https://krita.org -->
<svg xmlns="http://www.w3.org/2000/svg" 
    xmlns:xlink="http://www.w3.org/1999/xlink"
    xmlns:krita="http://krita.org/namespaces/svg/krita"
    xmlns:sodipodi="http://sodipodi.sourceforge.net/DTD/sodipodi-0.dtd"
    width="139.68pt"
    height="139.68pt"
    viewBox="0 0 139.68 139.68">
<defs/>
<path id="shape0" transform="matrix(0.72 0 0 0.72 0 0)" fill="#000000" stroke-opacity="0" stroke="#000000" stroke-width="0" stroke-linecap="square" stroke-linejoin="bevel" d="M96.829 193.658C43.438 193.658 0 150.22 0 96.829C0 43.438 43.438 0 96.829 0C150.22 0 193.657 43.437 193.657 96.829C193.657 150.221 150.221 193.658 96.829 193.658ZM4.384 105.308C8.681 152.535 48.502 189.658 96.829 189.658C145.156 189.658 184.976 152.535 189.273 105.308L126.471 105.308C122.779 118.198 110.888 127.658 96.828 127.658C82.768 127.658 70.877 118.198 67.184 105.308ZM70.629 91.039C70.217 92.904 70 94.841 70 96.829C70 111.622 82.035 123.658 96.829 123.658C111.622 123.658 123.657 111.622 123.657 96.829C123.657 82.036 111.622 70 96.829 70C84.195 70 73.573 78.778 70.74 90.556C70.724 90.724 70.686 90.886 70.629 91.039ZM127.333 101.308L189.551 101.308C189.621 99.823 189.657 98.331 189.657 96.829C189.657 95.327 189.621 93.835 189.551 92.35L127.333 92.35C127.547 93.812 127.657 95.308 127.657 96.829C127.657 98.35 127.547 99.845 127.333 101.308ZM4.107 101.308L66.325 101.308C66.111 99.845 66 98.35 66 96.829C66 95.308 66.11 93.812 66.324 92.35L4.107 92.35C4.036 93.835 4 95.326 4 96.829C4 98.332 4.036 99.823 4.107 101.308ZM126.472 88.35L189.274 88.35C184.977 41.123 145.156 4 96.829 4C48.502 4 8.681 41.123 4.384 88.35L11.414 88.35C13.462 67.478 23.057 48.166 38.529 33.839C54.435 19.111 75.14 11 96.829 11C97.933 11 98.829 11.896 98.829 13C98.829 14.104 97.933 15 96.829 15C55.117 15 19.696 47.081 15.434 88.35L67.185 88.35C70.878 75.46 82.77 66 96.829 66C110.888 66 122.781 75.46 126.472 88.35ZM96.829 112.446C88.218 112.446 81.212 105.44 81.212 96.829C81.212 88.218 88.218 81.212 96.829 81.212C105.44 81.212 112.446 88.218 112.446 96.829C112.447 105.44 105.441 112.446 96.829 112.446ZM96.829 85.212C90.424 85.212 85.212 90.423 85.212 96.829C85.212 103.235 90.424 108.446 96.829 108.446C103.234 108.446 108.446 103.235 108.446 96.829C108.447 90.423 103.235 85.212 96.829 85.212Z" sodipodi:nodetypes="cccccccccccccccccccccccccccccccccccccccccccccccccccccccc"/><g id="group0" transform="matrix(0.72 0 0 0.72 0 0)" fill="none"/><g id="group1" transform="matrix(0.72 0 0 0.72 0 0)" fill="none"/><g id="group2" transform="matrix(0.72 0 0 0.72 0 0)" fill="none"/><g id="group3" transform="matrix(0.72 0 0 0.72 0 0)" fill="none"/><g id="group4" transform="matrix(0.72 0 0 0.72 0 0)" fill="none"/><g id="group5" transform="matrix(0.72 0 0 0.72 0 0)" fill="none"/><g id="group6" transform="matrix(0.72 0 0 0.72 0 0)" fill="none"/><g id="group7" transform="matrix(0.72 0 0 0.72 0 0)" fill="none"/><g id="group8" transform="matrix(0.72 0 0 0.72 0 0)" fill="none"/><g id="group9" transform="matrix(0.72 0 0 0.72 0 0)" fill="none"/><g id="group10" transform="matrix(0.72 0 0 0.72 0 0)" fill="none"/><g id="group11" transform="matrix(0.72 0 0 0.72 0 0)" fill="none"/><g id="group12" transform="matrix(0.72 0 0 0.72 0 0)" fill="none"/><g id="group13" transform="matrix(0.72 0 0 0.72 0 0)" fill="none"/><g id="group14" transform="matrix(0.72 0 0 0.72 0 0)" fill="none"/>
</svg>
